<svg width="51" height="51" viewBox="0 0 51 51" fill="none" xmlns="http://www.w3.org/2000/svg">
<circle cx="25.5" cy="25.5" r="25.5" fill="black"/>
<g clip-path="url(#clip0_300_2)">
<path d="M38.2828 17.9664H33.4977V13.7172C33.4977 13.0992 33 12.6016 32.382 12.6016H13.7172C13.0992 12.6016 12.6016 13.0992 12.6016 13.7172V32.9125C12.6016 33.5305 13.0992 34.0281 13.7172 34.0281H18.5023V38.2773C18.5023 38.8953 19 39.393 19.618 39.393H38.2828C38.9008 39.393 39.3984 38.8953 39.3984 38.2773V19.082C39.3984 18.4695 38.9008 17.9664 38.2828 17.9664ZM14.8328 31.7969V14.8328H31.2609V17.9664H19.618C19 17.9664 18.5023 18.4641 18.5023 19.082V31.7969H14.8328ZM37.1672 37.1672H20.7336V20.2031H37.1617V37.1672H37.1672Z" fill="white"/>
<path d="M24.7586 25.9125H33.2789C33.8969 25.9125 34.3945 25.4149 34.3945 24.7969C34.3945 24.1789 33.8969 23.6813 33.2789 23.6813H24.7586C24.1406 23.6813 23.6429 24.1789 23.6429 24.7969C23.6429 25.4094 24.1406 25.9125 24.7586 25.9125Z" fill="white"/>
<path d="M24.7586 33.689H33.2789C33.8969 33.689 34.3945 33.1914 34.3945 32.5734C34.3945 31.9554 33.8969 31.4578 33.2789 31.4578H24.7586C24.1406 31.4578 23.6429 31.9554 23.6429 32.5734C23.6429 33.1914 24.1406 33.689 24.7586 33.689Z" fill="white"/>
</g>
<defs>
<clipPath id="clip0_300_2">
<rect width="28" height="28" fill="white" transform="translate(12 12)"/>
</clipPath>
</defs>
</svg>
