<svg width="51" height="51" viewBox="0 0 51 51" fill="none" xmlns="http://www.w3.org/2000/svg">
<g clip-path="url(#clip0_140_9)">
<path d="M25.5 0C11.4168 0 0.000244141 11.4169 0.000244141 25.4997C0.000244141 39.5821 11.4168 51 25.5 51C39.5823 51 50.9997 39.5821 50.9997 25.4997C50.9997 11.4169 39.5821 0 25.5 0ZM33.5268 28.2678H15.7096C14.2789 28.2678 13.1192 27.1083 13.1192 25.6774C13.1192 24.2465 14.2787 23.087 15.7096 23.087C17.1405 23.087 33.5271 23.087 33.5271 23.087C34.9578 23.087 36.1176 24.2465 36.1176 25.6774C36.1176 27.1083 34.9575 28.2678 33.5268 28.2678Z" fill="black"/>
</g>
<defs>
<clipPath id="clip0_140_9">
<rect width="51" height="51" fill="white"/>
</clipPath>
</defs>
</svg>
