<svg width="51" height="51" viewBox="0 0 51 51" fill="none" xmlns="http://www.w3.org/2000/svg">
<g clip-path="url(#clip0_140_63)">
<path d="M43.5462 7.48481C38.7346 2.66495 32.3315 0.00740733 25.4982 0.000793457C11.4507 0.000793457 0.012 11.4275 1.23653e-05 25.4745C-0.00660151 32.2864 2.64019 38.6924 7.45096 43.5139C12.2634 48.3325 18.6412 50.9996 25.4527 50.9996H25.5118V50.9971C39.4584 50.9971 50.9897 39.5679 51 25.5217C51.0066 18.7102 48.3561 12.3051 43.5462 7.48481ZM26.6312 38.973C26.3381 39.269 25.9285 39.4385 25.5077 39.4385C25.0852 39.4377 24.6743 39.2674 24.3779 38.9673C24.0836 38.6754 23.9145 38.2654 23.915 37.8433C23.9158 37.4225 24.0869 37.01 24.3833 36.7144C24.6784 36.4201 25.1133 36.2506 25.5118 36.2506C25.9314 36.2506 26.3414 36.4209 26.6341 36.7161C26.9334 37.0178 27.1049 37.4308 27.1041 37.8458C27.1037 38.2625 26.9313 38.6729 26.6312 38.973ZM27.3984 29.2122C27.2165 29.2523 27.0863 29.4135 27.0859 29.5999L27.0838 31.4725C27.083 32.3497 26.3691 33.0648 25.4886 33.0648C24.609 33.064 23.8959 32.3476 23.8968 31.4696L23.9005 27.8564C23.9013 26.9796 24.6152 26.298 25.4936 26.298H25.5006C28.548 26.298 31.0294 23.7847 31.0327 20.7374C31.034 19.2608 30.4606 17.8558 29.4165 16.8079C28.3686 15.7608 26.9809 15.1763 25.5015 15.1747C22.4537 15.1747 19.9714 17.6503 19.9681 20.6997C19.9673 21.5773 19.2526 22.2891 18.3725 22.2891C17.9468 22.2891 17.5462 22.1213 17.2461 21.8196C16.9448 21.5186 16.7802 21.1181 16.7807 20.6927C16.7852 15.8881 20.6969 11.9785 25.5077 11.9785C30.3164 11.9835 34.2239 15.8989 34.2194 20.7068C34.2161 24.7549 31.3485 28.3322 27.3984 29.2122Z" fill="black"/>
</g>
<defs>
<clipPath id="clip0_140_63">
<rect width="51" height="51" fill="white"/>
</clipPath>
</defs>
</svg>
